#!OML:ASF F:\VICON\USERDATA\INSTALL\rory3\rory3.ASF
:FULLY-SPECIFIED
:DEGREES
180
root 2.22592 17.9292 8.80448 -173.965 -8.02695 179.039
lowerback 5.99995 0.578898 -0.260465
upperback 0.421317 0.755621 2.16599
thorax -2.96329 0.364586 2.31803
lowerneck -23.0584 -4.16497 -10.5973
upperneck 27.1613 -4.35477 5.23177
head 13.362 -2.55447 2.99024
rclavicle -2.79292e-014 -2.22639e-014
rhumerus 2.76881 20.87 -72.0509
rradius 58.0143
rwrist 30.1906
rhand -27.4076 -1.38345
rfingers 7.12502
rthumb -0.813795 -31.3616
lclavicle -2.79292e-014 -2.22639e-014
lhumerus -30.2515 4.1858 84.1936
lradius 34.004
lwrist -5.56912
lhand -13.3986 27.4289
lfingers 7.12502
lthumb 12.709 57.0222
rfemur -24.3298 -2.62124 23.2645
rtibia 27.5421
rfoot -7.49503 -1.95582
rtoes 15.9824
lfemur -13.5241 -3.22959 -19.3673
ltibia 47.3202
lfoot -6.96274 -2.62734
ltoes -25.1023
181
root 2.2502 17.9342 8.74897 -173.988 -8.19349 179.199
lowerback 5.95882 0.705812 -0.0178457
upperback 0.375055 0.941356 2.17132
thorax -2.99199 0.454113 2.17123
lowerneck -22.7092 -4.30548 -10.6807
upperneck 26.9718 -4.5714 5.259
head 13.2369 -2.65411 2.97421
rclavicle 3.74709e-014 3.02153e-014
rhumerus 4.26136 20.9622 -71.0529
rradius 58.4087
rwrist 30.636
rhand -27.8576 -1.3111
rfingers 7.12502
rthumb -1.24842 -31.2872
lclavicle 3.74709e-014 3.02153e-014
lhumerus -30.3452 3.75429 84.3536
lradius 34.739
lwrist -5.25215
lhand -13.8623 27.0904
lfingers 7.12502
lthumb 12.2618 56.7109
rfemur -23.9372 -2.85183 23.5707
rtibia 27.1625
rfoot -7.46666 -1.80644
rtoes 15.9745
lfemur -14.7206 -3.08558 -19.0193
ltibia 49.1165
lfoot -7.71838 -3.36781
ltoes -24.8709
182
root 2.27301 17.9401 8.6989 -174.126 -8.33925 179.285
lowerback 6.04728 0.872379 0.261543
upperback 0.425421 1.17898 2.05954
thorax -2.99046 0.567699 1.87733
lowerneck -22.6351 -4.45396 -10.5545
upperneck 26.8728 -4.81349 5.20428
head 13.1995 -2.74893 2.88616
rclavicle -2.68359e-014 2.46493e-014
rhumerus 5.61939 20.6994 -70.1756
rradius 58.8309
rwrist 31.714
rhand -28.7885 -1.3888
rfingers 7.12502
rthumb -2.14745 -31.3577
lclavicle -2.68359e-014 2.46493e-014
lhumerus -30.1999 3.09968 84.4491
lradius 35.3962
lwrist -4.81912
lhand -14.2302 26.6436
lfingers 7.12502
lthumb 11.9071 56.285
rfemur -23.456 -3.08722 23.7825
rtibia 26.815
rfoot -7.47375 -1.66835
rtoes 15.2756
lfemur -15.8037 -3.01901 -18.7946
ltibia 50.8407
lfoot -8.60822 -4.28746
ltoes -24.9353
183
root 2.29771 17.9481 8.64852 -174.283 -8.42434 179.374
lowerback 6.3004 1.04295 0.441666
upperback 0.401013 1.42124 2.02624
thorax -3.1598 0.685441 1.71668
lowerneck -22.5322 -4.58213 -10.5762
upperneck 26.7743 -4.97699 5.15632
head 13.1538 -2.82551 2.84041
rclavicle 6.16232e-015 3.18055e-014
rhumerus 7.19563 20.5971 -69.1347
rradius 58.8134
rwrist 32.8034
rhand -29.5103 -1.61347
rfingers 7.12502
rthumb -2.84456 -31.5742
lclavicle 6.16232e-015 3.18055e-014
lhumerus -30.2044 2.70843 84.5869
lradius 36.054
lwrist -4.64276
lhand -14.4753 26.4722
lfingers 7.12502
lthumb 11.6708 56.1271
rfemur -22.9314 -3.29569 23.987
rtibia 26.4808
rfoot -7.46962 -1.47506
rtoes 15.7481
lfemur -16.9015 -2.85159 -18.5593
ltibia 52.5096
lfoot -9.5363 -5.06013
ltoes -25.3205
184
root 2.32332 17.9562 8.59373 -174.384 -8.41178 179.413
lowerback 6.37593 1.22284 0.55624
upperback 0.458711 1.66631 1.96845
thorax -3.14416 0.804708 1.56963
lowerneck -22.6559 -4.73194 -10.6193
upperneck 26.8017 -5.16489 5.18288
head 13.2113 -2.90345 2.82276
rclavicle 3.77691e-015 3.02153e-014
rhumerus 9.16466 20.5657 -68.003
rradius 58.6476
rwrist 33.2091
rhand -29.8164 -1.7591
rfingers 7.12502
rthumb -3.14015 -31.7157
lclavicle 3.77691e-015 3.02153e-014
lhumerus -30.0309 2.50602 84.6643
lradius 36.6402
lwrist -4.53136
lhand -14.8009 26.3993
lfingers 7.12502
lthumb 11.3568 56.0718
rfemur -22.4462 -3.44265 24.1341
rtibia 26.1717
rfoot -7.47208 -1.19725
rtoes 16.572
lfemur -18.0376 -2.55253 -18.3825
ltibia 54.108
lfoot -10.423 -5.54996
ltoes -25.7207
185
root 2.34873 17.9633 8.54045 -174.562 -8.43542 179.534
lowerback 6.46948 1.41322 0.77456
upperback 0.608272 1.92711 1.91045
thorax -3.039 0.928656 1.36333
lowerneck -22.928 -4.9311 -10.6828
upperneck 26.8374 -5.41333 5.28278
head 13.3119 -2.99421 2.82497
rclavicle 1.36167e-014 2.54444e-014
rhumerus 11.256 20.5066 -66.8175
rradius 58.5923
rwrist 32.9814
rhand -30.1723 -2.22492
rfingers 7.12502
rthumb -3.48386 -32.1762
lclavicle 1.36167e-014 2.54444e-014
lhumerus -29.7198 2.17758 84.7634
lradius 37.3009
lwrist -4.31049
lhand -15.2729 26.4915
lfingers 7.12502
lthumb 10.9015 56.1885
rfemur -21.9322 -3.51289 24.3571
rtibia 25.9091
rfoot -7.49717 -1.05904
rtoes 16.2758
lfemur -19.1003 -2.31018 -18.136
ltibia 55.6706
lfoot -11.3044 -5.88795
ltoes -26.1374
186
root 2.37382 17.972 8.49169 -174.677 -8.54488 179.577
lowerback 6.55192 1.59046 0.888963
upperback 0.568501 2.1743 1.85721
thorax -3.12458 1.05046 1.21907
lowerneck -22.4572 -5.05343 -10.667
upperneck 26.6203 -5.64982 5.28315
head 13.1491 -3.10024 2.78063
rclavicle 1.44119e-014 -7.95139e-016
rhumerus 12.8803 20.3232 -65.7856
rradius 58.2466
rwrist 33.3559
rhand -30.7722 -1.99509
rfingers 7.12502
rthumb -4.06319 -31.9361
lclavicle 1.44119e-014 -7.95139e-016
lhumerus -29.8892 1.8321 84.8674
lradius 38.1543
lwrist -4.3145
lhand -15.2283 26.6159
lfingers 7.12502
lthumb 10.9445 56.3106
rfemur -21.5497 -3.55669 24.4992
rtibia 25.7167
rfoot -7.56969 -1.09639
rtoes 16.082
lfemur -20.2473 -2.16186 -17.9667
ltibia 57.1919
lfoot -12.0471 -6.34325
ltoes -25.6273
